<?xml version="1.0" encoding="utf-8"?>
<!-- Generator: Adobe Illustrator 27.5.0, SVG Export Plug-In . SVG Version: 6.00 Build 0)  -->
<svg version="1.1" id="Capa_1" xmlns="http://www.w3.org/2000/svg" xmlns:xlink="http://www.w3.org/1999/xlink" x="0px" y="0px"
	 viewBox="0 0 425.196 382.292" style="enable-background:new 0 0 425.196 382.292;" xml:space="preserve">
<g>
	<path style="fill:#192A3B;" d="M397.687,87.012c-8.735,0-15.842,5.735-15.842,12.784c0,4.895,3.431,9.151,8.45,11.299
		c-18.308,29.271-41.727,50.926-56.264,62.746c-2.639-5.367-5.919-12.647-9.1-21.307c2.547-13.769,6.053-28.478,10.854-42.897
		c0.442,0.073,0.9,0.113,1.37,0.113c3.593,0,6.506-2.228,6.506-4.977c0-2.749-2.913-4.977-6.506-4.977s-6.506,2.228-6.506,4.977
		c0,2.314,2.067,4.253,4.863,4.811c-4.523,11.098-9.605,21.25-14.787,30.323c-5.188-17.334-9.013-38.261-7.414-59.965
		c7.419-1.06,13.076-6.29,13.076-12.576c0-7.049-7.107-12.784-15.842-12.784s-15.842,5.735-15.842,12.784
		c0,6.041,5.226,11.105,12.217,12.433c-4.685,21.278-14.392,40.332-24.164,55.349c-3.104-17.08-5.055-36.521-3.983-56.334
		c0.236,0.02,0.475,0.032,0.717,0.032c3.593,0,6.506-2.228,6.506-4.977c0-2.749-2.913-4.977-6.506-4.977
		c-3.593,0-6.506,2.228-6.506,4.977c0,2.472,2.358,4.517,5.445,4.905c-4.088,29.274-14.574,54.917-24.083,73.035
		c-13.749-17.204-35.039-49.156-38.442-85.364c7.152-1.231,12.535-6.366,12.535-12.499c0-7.049-7.107-12.784-15.842-12.784
		c-8.735,0-15.842,5.735-15.842,12.784c0,6.134,5.383,11.268,12.535,12.499c-3.403,36.209-24.693,68.16-38.442,85.364
		c-9.509-18.118-19.995-43.761-24.083-73.035c3.087-0.388,5.445-2.433,5.445-4.905c0-2.749-2.913-4.977-6.506-4.977
		c-3.593,0-6.506,2.228-6.506,4.977c0,2.749,2.913,4.977,6.506,4.977c0.243,0,0.482-0.012,0.717-0.032
		c1.072,19.812-0.879,39.254-3.983,56.334c-9.772-15.017-19.479-34.072-24.164-55.349c6.991-1.328,12.217-6.392,12.217-12.433
		c0-7.049-7.107-12.784-15.842-12.784s-15.842,5.735-15.842,12.784c0,6.286,5.657,11.516,13.076,12.576
		c1.599,21.704-2.227,42.631-7.414,59.966c-5.182-9.073-10.263-19.225-14.787-30.323c2.796-0.557,4.863-2.497,4.863-4.811
		c0-2.749-2.913-4.977-6.506-4.977c-3.593,0-6.506,2.228-6.506,4.977c0,2.749,2.913,4.977,6.506,4.977c0.47,0,0.928-0.04,1.37-0.113
		c4.801,14.419,8.307,29.128,10.854,42.897c-3.181,8.66-6.46,15.94-9.1,21.306c-14.538-11.821-37.956-33.474-56.264-62.746
		c5.02-2.147,8.45-6.404,8.45-11.299c0-7.049-7.107-12.784-15.842-12.784c-8.735,0-15.842,5.735-15.842,12.784
		c0,7.049,7.107,12.784,15.842,12.784c0.335,0,0.662-0.024,0.992-0.041c11.765,24.433,17.781,49.072,20.796,66.255
		c1.667,9.502,2.615,17.731,3.132,24.195c-4.473,4.419-6.731,9.088-6.731,13.949c0,7.532,5.414,14.577,16.068,20.959l1.53,35.555
		c-6.134,5.463-9.333,11.337-9.333,17.429c0,14.018,16.919,26.887,47.64,36.237c29.687,9.035,69.106,14.011,110.994,14.011
		c41.888,0,81.307-4.976,110.994-14.011c30.721-9.35,47.64-22.219,47.64-36.237c0-5.536-2.649-10.891-7.734-15.922v-37.102
		c10.609-6.372,15.999-13.403,15.999-20.919c0-4.861-2.258-9.531-6.731-13.949c0.516-6.463,1.465-14.693,3.132-24.195
		c3.014-17.182,9.032-41.822,20.796-66.255c0.33,0.017,0.657,0.041,0.992,0.041c8.735,0,15.842-5.735,15.842-12.784
		C413.529,92.747,406.422,87.012,397.687,87.012z M66.244,193.487c-1.281-10.215-3.308-20.242-4.93-27.401
		c5.523,5.603,13.558,13.377,22.004,20.289C76.833,188.593,71.129,190.968,66.244,193.487z M110.243,179.047
		c-0.075-0.594-0.15-1.186-0.225-1.768c1.516-3.151,2.921-6.346,4.212-9.513c1.945,2.836,4.174,5.984,6.561,9.173
		C117.186,177.601,113.67,178.305,110.243,179.047z M132.302,175.012c-1.126,0.172-2.245,0.347-3.357,0.527
		c-3.537-4.286-7.54-9.481-11.739-15.498c2.909-8.031,5.037-15.333,6.378-20.347c2.96,4.887,7.61,12.165,13.357,19.84
		C135.382,165.314,133.794,170.517,132.302,175.012z M142.353,173.6c0.543-1.754,1.065-3.517,1.562-5.276
		c1.31,1.551,2.656,3.088,4.033,4.594C146.068,173.136,144.201,173.362,142.353,173.6z M162.575,161.542
		c-3.62-4.065-8.24-9.592-13.164-16.309c1.547-7.729,2.334-12.983,2.334-12.983s4.993,13.472,12.329,27.619
		C163.543,160.469,163.034,161.039,162.575,161.542z M212.598,169.335c-7.929,0-15.772,0.155-23.488,0.453
		c6.716-9.77,12.44-22.064,16.555-32.152c2.962-4.992,5.311-9.369,6.933-12.532c1.622,3.162,3.971,7.54,6.933,12.532
		c4.115,10.089,9.838,22.382,16.555,32.152C228.37,169.49,220.527,169.335,212.598,169.335z M262.621,161.542
		c-0.458-0.504-0.968-1.073-1.499-1.673c7.336-14.147,12.329-27.619,12.329-27.619s0.788,5.254,2.334,12.983
		C270.861,151.95,266.241,157.477,262.621,161.542z M277.249,172.917c1.377-1.506,2.722-3.043,4.033-4.594
		c0.497,1.76,1.019,3.523,1.562,5.276C280.995,173.362,279.128,173.136,277.249,172.917z M292.895,175.012
		c-1.492-4.495-3.08-9.698-4.639-15.477c5.747-7.675,10.397-14.954,13.356-19.84c1.341,5.014,3.469,12.316,6.378,20.347
		c-4.199,6.017-8.202,11.211-11.74,15.498C295.139,175.36,294.021,175.184,292.895,175.012z M314.954,179.047
		c-3.427-0.742-6.943-1.446-10.548-2.107c2.387-3.189,4.616-6.337,6.561-9.173c1.291,3.167,2.695,6.361,4.212,9.513
		C315.103,177.861,315.028,178.453,314.954,179.047z M358.953,193.487c-4.886-2.519-10.589-4.895-17.074-7.112
		c8.446-6.911,16.481-14.685,22.004-20.289C362.26,173.245,360.233,183.272,358.953,193.487z"/>
	<g>
		<path style="fill:#EDA33C;" d="M389.263,117.907c-1.355,2.031-2.734,4.027-4.133,5.985c-1.398,1.959-2.816,3.88-4.248,5.764
			c-4.296,5.651-8.721,10.963-13.147,15.908c-2.213,2.473-4.426,4.855-6.622,7.142c-0.732,0.762-1.463,1.514-2.191,2.255
			c-2.912,2.965-5.785,5.76-8.582,8.378c-1.398,1.309-2.777,2.574-4.132,3.793c-0.677,0.61-1.349,1.208-2.014,1.795
			c-1.33,1.174-2.633,2.303-3.905,3.384c-2.544,2.164-4.963,4.141-7.218,5.924c-0.321-0.624-0.647-1.269-0.976-1.926
			c-0.104-0.207-0.209-0.421-0.313-0.631c-0.23-0.464-0.461-0.933-0.694-1.412c-0.122-0.25-0.244-0.503-0.366-0.757
			c-0.227-0.47-0.454-0.949-0.683-1.433c-0.12-0.254-0.24-0.506-0.36-0.764c-0.271-0.581-0.544-1.173-0.818-1.773
			c-0.075-0.164-0.149-0.323-0.224-0.489c-0.341-0.753-0.685-1.522-1.028-2.303c-0.113-0.256-0.225-0.519-0.338-0.778
			c-0.236-0.543-0.473-1.09-0.71-1.646c-0.138-0.324-0.276-0.652-0.414-0.981c-0.217-0.517-0.434-1.038-0.651-1.565
			c-0.14-0.339-0.279-0.678-0.419-1.022c-0.231-0.57-0.462-1.149-0.693-1.731c-0.12-0.302-0.24-0.6-0.359-0.906
			c-0.334-0.853-0.667-1.717-0.997-2.594c-0.118-0.314-0.235-0.635-0.353-0.951c-0.222-0.597-0.444-1.196-0.664-1.803
			c-0.146-0.403-0.291-0.811-0.436-1.218c-0.192-0.539-0.383-1.081-0.573-1.628c-0.148-0.427-0.296-0.855-0.443-1.287
			c-0.19-0.559-0.379-1.124-0.567-1.691c-0.139-0.419-0.279-0.836-0.417-1.26c-0.253-0.777-0.501-1.563-0.748-2.353
			c-0.159-0.508-0.315-1.021-0.471-1.534c-0.199-0.654-0.398-1.309-0.592-1.972c-0.138-0.468-0.272-0.942-0.407-1.414
			c-0.16-0.56-0.319-1.121-0.476-1.686c-0.139-0.501-0.276-1.003-0.412-1.508c-0.151-0.56-0.299-1.124-0.446-1.689
			c-0.131-0.502-0.262-1.004-0.39-1.51c-0.162-0.643-0.319-1.291-0.475-1.94c-0.163-0.673-0.323-1.348-0.479-2.028
			c-0.177-0.769-0.353-1.538-0.522-2.314c-0.112-0.514-0.218-1.033-0.327-1.55c-0.123-0.589-0.246-1.178-0.364-1.771
			c-0.109-0.546-0.215-1.094-0.319-1.644c-0.11-0.581-0.218-1.163-0.323-1.747c-0.099-0.55-0.198-1.101-0.293-1.654
			c-0.106-0.623-0.207-1.25-0.307-1.877c-0.083-0.518-0.169-1.033-0.248-1.553c-0.161-1.064-0.312-2.133-0.454-3.207
			c-0.069-0.521-0.129-1.046-0.194-1.57c-0.079-0.64-0.157-1.28-0.228-1.923c-0.063-0.562-0.12-1.127-0.177-1.691
			c-0.062-0.618-0.121-1.236-0.177-1.856c-0.051-0.568-0.1-1.136-0.145-1.706c-0.051-0.65-0.095-1.301-0.139-1.954
			c-0.036-0.537-0.075-1.074-0.105-1.613c-0.191-3.396-0.264-6.824-0.221-10.273c0.018-1.413,0.056-2.829,0.116-4.248
			c0.001-0.027,0.002-0.054,0.003-0.081c0.052-1.223,0.128-2.448,0.213-3.674c-0.242-0.001-0.477-0.02-0.716-0.029
			c-0.979,4.504-2.167,8.925-3.55,13.238c-0.774,2.415-1.605,4.797-2.486,7.145c-2.202,5.87-4.716,11.524-7.432,16.922
			c-10.32,20.514-23.55,37.338-33.635,48.308c-4.084-4.299-9.254-10.254-14.712-17.522c-2.047-2.725-4.134-5.635-6.219-8.712
			c-1.39-2.051-2.78-4.176-4.157-6.369c-2.065-3.29-4.1-6.735-6.063-10.315c-0.655-1.193-1.301-2.402-1.938-3.625
			c-5.732-11.009-10.692-23.189-13.743-36.051c-1.273-5.368-2.198-10.858-2.723-16.427c-0.164,0.004-0.325,0.02-0.49,0.02
			c-0.002,0-0.004,0-0.006,0c-0.002,0-0.004,0-0.006,0c-0.165,0-0.326-0.016-0.49-0.02c-1.225,12.984-4.69,25.52-9.38,37.149
			c-1.607,3.984-3.356,7.863-5.205,11.617c-2.465,5.006-5.108,9.791-7.828,14.312c-0.68,1.13-1.365,2.244-2.053,3.341
			c-1.376,2.193-2.766,4.318-4.157,6.369c-0.695,1.025-1.39,2.032-2.084,3.02c-1.388,1.975-2.771,3.874-4.135,5.691
			c-2.729,3.634-5.386,6.939-7.871,9.874c-1.243,1.467-2.442,2.842-3.586,4.118c-1.144,1.276-2.233,2.455-3.254,3.529
			c-3.185-3.464-6.683-7.512-10.304-12.076c-1.207-1.521-2.428-3.1-3.655-4.733c-0.614-0.817-1.229-1.647-1.845-2.491
			c-1.232-1.687-2.467-3.428-3.699-5.22c-2.463-3.584-4.909-7.372-7.283-11.343c-8.649-14.469-16.323-31.382-20.317-49.751
			c-0.239,0.01-0.475,0.028-0.716,0.029c0.085,1.228,0.161,2.455,0.213,3.68c0.001,0.02,0.001,0.04,0.002,0.061
			c0.06,1.425,0.098,2.848,0.116,4.267v0c0.043,3.447-0.031,6.874-0.221,10.269c-0.03,0.539-0.069,1.075-0.105,1.613
			c-0.043,0.652-0.087,1.304-0.138,1.953c-0.045,0.57-0.095,1.138-0.145,1.706c-0.055,0.62-0.114,1.238-0.177,1.856
			c-0.057,0.565-0.114,1.13-0.177,1.692c-0.071,0.64-0.149,1.276-0.227,1.913c-0.065,0.528-0.126,1.057-0.195,1.583
			c-0.142,1.073-0.293,2.141-0.453,3.203c-0.078,0.52-0.165,1.035-0.248,1.552c-0.1,0.628-0.201,1.255-0.307,1.879
			c-0.094,0.553-0.194,1.103-0.293,1.653c-0.105,0.584-0.212,1.166-0.323,1.747c-0.105,0.55-0.211,1.1-0.32,1.647
			c-0.118,0.589-0.239,1.175-0.362,1.76c-0.109,0.522-0.216,1.045-0.329,1.563c-0.165,0.757-0.336,1.507-0.509,2.256
			c-0.163,0.709-0.33,1.413-0.5,2.114c-0.154,0.636-0.307,1.272-0.466,1.902c-0.129,0.511-0.262,1.018-0.394,1.525
			c-0.146,0.561-0.293,1.121-0.443,1.678c-0.136,0.506-0.274,1.01-0.413,1.512c-0.156,0.561-0.314,1.118-0.473,1.674
			c-0.137,0.477-0.273,0.956-0.412,1.43c-0.193,0.657-0.39,1.306-0.588,1.955c-0.157,0.517-0.315,1.033-0.475,1.545
			c-0.247,0.79-0.496,1.576-0.748,2.353c-0.138,0.426-0.279,0.844-0.419,1.266c-0.187,0.562-0.373,1.123-0.563,1.678
			c-0.148,0.436-0.298,0.868-0.448,1.299c-0.189,0.544-0.379,1.083-0.57,1.619c-0.146,0.409-0.291,0.818-0.437,1.222
			c-0.219,0.604-0.44,1.2-0.661,1.794c-0.119,0.32-0.237,0.644-0.357,0.961c-0.33,0.874-0.661,1.736-0.994,2.587
			c-0.123,0.314-0.247,0.621-0.37,0.932c-0.227,0.572-0.454,1.141-0.681,1.702c-0.142,0.35-0.284,0.696-0.427,1.041
			c-0.214,0.521-0.429,1.037-0.643,1.547c-0.139,0.331-0.278,0.662-0.418,0.989c-0.236,0.554-0.471,1.099-0.707,1.64
			c-0.114,0.261-0.228,0.526-0.341,0.784c-0.343,0.78-0.685,1.548-1.026,2.299c-0.077,0.17-0.153,0.332-0.23,0.5
			c-0.272,0.596-0.544,1.186-0.814,1.763c-0.121,0.259-0.241,0.513-0.362,0.768c-0.228,0.482-0.455,0.959-0.68,1.427
			c-0.123,0.255-0.246,0.51-0.368,0.761c-0.232,0.478-0.463,0.945-0.692,1.408c-0.105,0.212-0.211,0.428-0.316,0.637
			c-0.325,0.649-0.647,1.286-0.964,1.902c-0.004,0.007-0.007,0.014-0.011,0.021c-4.511-3.566-9.675-7.908-15.186-12.966
			c-2.756-2.529-5.598-5.237-8.488-8.117c-5.78-5.759-11.753-12.205-17.611-19.279c-1.464-1.768-2.922-3.576-4.367-5.422
			c-4.986-6.368-9.826-13.193-14.329-20.433c-0.223,0.055-0.453,0.094-0.68,0.141c0.271,0.57,0.549,1.139,0.814,1.71
			c0.079,0.169,0.159,0.338,0.237,0.507c0.576,1.246,1.139,2.493,1.688,3.741c0.065,0.148,0.129,0.295,0.193,0.443
			c1.135,2.595,2.214,5.192,3.236,7.783c0.033,0.085,0.067,0.169,0.1,0.254c1.052,2.676,2.047,5.346,2.984,8.002
			c9.083,25.728,12.923,50.104,14.356,66.021c1.441-1.182,3.046-2.345,4.816-3.487c1.156-0.746,2.384-1.48,3.671-2.204
			c-2.324-19.297-7.514-38.469-7.514-38.469s14.627,16.161,30.462,28.856c0.532-0.171,1.066-0.342,1.608-0.511
			c2.118-0.661,4.312-1.306,6.575-1.936c0.384-0.107,0.76-0.215,1.148-0.321c3.096-0.845,6.297-1.65,9.586-2.419
			c11.255-21.544,17.098-47.879,17.098-47.879s12.531,22.84,28.937,40.272c2.537-0.276,5.098-0.535,7.684-0.776
			c2.467-0.23,4.956-0.444,7.464-0.642c3.507-0.277,7.052-0.522,10.632-0.734c20.825-20.134,35.359-51.676,35.359-51.676
			s14.534,31.542,35.359,51.676c3.58,0.212,7.124,0.458,10.632,0.734c2.509,0.198,4.997,0.412,7.464,0.642
			c2.586,0.241,5.148,0.5,7.685,0.776c16.406-17.432,28.937-40.272,28.937-40.272s5.843,26.336,17.098,47.879
			c3.29,0.769,6.491,1.574,9.586,2.419c0.388,0.106,0.765,0.214,1.148,0.321c2.264,0.63,4.458,1.275,6.575,1.936
			c0.542,0.169,1.076,0.34,1.608,0.511c15.835-12.695,30.462-28.856,30.462-28.856s-5.19,19.171-7.514,38.469
			c1.287,0.724,2.515,1.458,3.671,2.203c1.77,1.142,3.375,2.305,4.816,3.487c1.433-15.916,5.272-40.292,14.355-66.019
			c0.937-2.654,1.931-5.323,2.983-7.998c0.035-0.088,0.069-0.176,0.104-0.264c1.021-2.588,2.099-5.182,3.233-7.775
			c0.065-0.149,0.13-0.298,0.195-0.447c0.548-1.246,1.11-2.491,1.686-3.736c0.079-0.171,0.16-0.343,0.24-0.514
			c0.265-0.569,0.542-1.137,0.813-1.705c-0.227-0.047-0.458-0.086-0.68-0.141C391.814,114.013,390.551,115.978,389.263,117.907z"/>
		<path style="fill:#EDA33C;" d="M212.598,172.166c-90.613,0-164.07,20.046-164.07,44.773c0,6.234,4.685,12.168,13.121,17.561
			c0.073-1.99,0.527-5.198,2.299-9.117l0.122-0.269l0.175-0.238c8.465-11.544,33.056-18.778,52.195-22.813
			c26.877-5.667,61.027-8.788,96.159-8.788c37.113,0,72.719,3.439,100.259,9.685c19.849,4.501,44.642,12.542,50.034,25.285
			l0.097,0.229l0.055,0.243c0.539,2.355,0.648,4.303,0.619,5.711c8.363-5.373,13.005-11.281,13.005-17.487
			C376.668,192.212,303.211,172.166,212.598,172.166z"/>
		<path style="fill:#EDA33C;" d="M82.241,215.473c-0.396,0.181-0.788,0.363-1.172,0.546c-0.046,0.022-0.091,0.044-0.137,0.066
			c-0.794,0.38-1.554,0.765-2.297,1.153c-1.252,0.654-2.439,1.317-3.541,1.992c-0.094,0.058-0.191,0.115-0.285,0.173
			c-0.255,0.158-0.502,0.318-0.749,0.477c-0.127,0.082-0.256,0.164-0.38,0.246c-0.224,0.148-0.44,0.296-0.657,0.445
			c-0.139,0.096-0.279,0.191-0.415,0.287c-0.2,0.141-0.394,0.282-0.587,0.424c-0.144,0.106-0.288,0.212-0.429,0.318
			c-0.178,0.135-0.353,0.27-0.525,0.405c-0.147,0.115-0.291,0.231-0.434,0.347c-0.158,0.129-0.315,0.258-0.468,0.388
			c-0.146,0.124-0.288,0.248-0.429,0.372c-0.142,0.125-0.283,0.249-0.419,0.375c-0.144,0.132-0.282,0.264-0.42,0.397
			c-0.124,0.119-0.249,0.238-0.368,0.357c-0.143,0.143-0.279,0.287-0.416,0.431c-0.105,0.11-0.213,0.221-0.314,0.331
			c-0.148,0.163-0.287,0.326-0.427,0.49c-0.08,0.093-0.164,0.186-0.241,0.28c-0.208,0.253-0.406,0.507-0.594,0.762
			c-0.003,0.005-0.007,0.009-0.01,0.013c-0.243,0.537-0.458,1.059-0.648,1.564c-0.19,0.504-0.355,0.992-0.499,1.46
			c-0.096,0.312-0.182,0.615-0.259,0.91c-0.155,0.589-0.274,1.142-0.366,1.654c-0.118,0.659-0.19,1.249-0.232,1.765
			c-0.031,0.372-0.046,0.705-0.051,0.994c-0.016,0.869,0.055,1.351,0.055,1.351l0,0.003l0.44,18.626
			c0.087-0.377,0.193-0.775,0.311-1.185l0.753,17.505c0.022-0.017,0.043-0.035,0.065-0.052l-0.281-11.88
			c6.009-3.686,13.483-7.111,22.173-10.211v-11.314l2.873,8.534v-32.367l9.824,29.184l-1.745-27.389l2.906,11.824l1.096,4.461
			l2.856,11.623c9.81-2.572,20.63-4.794,32.258-6.607v-9.023l2.006,5.959v-22.599l6.859,20.377l-1.218-19.123l5.547,22.572
			c18.947-2.332,39.649-3.62,61.343-3.62c21.698,0,42.399,1.291,61.348,3.624l5.548-22.575l-1.218,19.124l6.86-20.377v22.599
			l2.006-5.959V237c11.626,1.813,22.451,4.033,32.259,6.605l6.857-27.903l-1.745,27.389l8.112-24.097l1.712-5.087v32.367
			l2.873-8.534v11.321c9.32,3.325,17.247,7.023,23.462,11.018v-23.833c0,0,0.056-0.265,0.104-0.758
			c0.024-0.246,0.046-0.549,0.057-0.904c0.012-0.355,0.013-0.762-0.003-1.216c-0.013-0.363-0.038-0.757-0.078-1.178
			c-0.02-0.211-0.044-0.428-0.073-0.653c-0.086-0.673-0.211-1.406-0.391-2.19c-0.001-0.001-0.001-0.002-0.001-0.003
			c-0.157-0.37-0.343-0.739-0.543-1.106c-0.055-0.1-0.112-0.199-0.169-0.299c-0.179-0.31-0.373-0.619-0.582-0.927
			c-0.042-0.062-0.08-0.124-0.123-0.186c-0.256-0.364-0.535-0.726-0.832-1.087c-0.066-0.08-0.137-0.16-0.206-0.24
			c-0.257-0.301-0.528-0.601-0.815-0.9c-0.072-0.075-0.141-0.151-0.215-0.226c-0.357-0.363-0.733-0.723-1.132-1.082
			c-0.04-0.036-0.083-0.071-0.124-0.107c-0.37-0.328-0.758-0.654-1.163-0.978c-0.086-0.069-0.171-0.138-0.259-0.206
			c-0.918-0.721-1.921-1.433-3.006-2.134c-0.077-0.05-0.155-0.099-0.233-0.149c-1.127-0.719-2.337-1.427-3.634-2.123
			c-0.031-0.017-0.063-0.033-0.094-0.05c-0.646-0.345-1.312-0.688-1.999-1.027c-0.024-0.012-0.047-0.023-0.07-0.035
			c-1.431-0.706-2.95-1.398-4.551-2.076c-0.022-0.009-0.044-0.019-0.066-0.028c-0.608-0.257-1.229-0.512-1.861-0.766
			c-0.315-0.126-0.641-0.25-0.961-0.375c-0.324-0.126-0.643-0.254-0.972-0.379c-0.366-0.139-0.744-0.276-1.117-0.413
			c-0.295-0.109-0.585-0.219-0.885-0.327c-0.393-0.142-0.798-0.281-1.198-0.422c-0.285-0.1-0.563-0.201-0.851-0.299v0
			c-5.751-1.974-12.26-3.799-19.417-5.452v-0.001c-0.051-0.012-0.104-0.023-0.155-0.034c-1.344-0.309-2.712-0.612-4.101-0.909
			c-0.077-0.017-0.15-0.034-0.227-0.05v0.001c-0.863-0.184-1.734-0.365-2.614-0.544v-0.002c-0.06-0.012-0.121-0.024-0.181-0.036
			c-1.096-0.222-2.201-0.441-3.322-0.656c-0.035-0.007-0.07-0.014-0.105-0.021v0.001c-0.864-0.165-1.735-0.327-2.614-0.487v-0.001
			c-0.025-0.005-0.051-0.009-0.076-0.013c-2.289-0.417-4.627-0.817-7.013-1.201c-0.08-0.013-0.16-0.025-0.24-0.038
			c-1.911-0.306-3.859-0.599-5.828-0.884c-0.297-0.043-0.591-0.087-0.889-0.129c-0.21-0.03-0.415-0.061-0.626-0.091v0.007
			c-6.213-0.874-12.691-1.645-19.417-2.292v0c-0.035-0.003-0.072-0.006-0.107-0.01c-1.448-0.139-2.907-0.272-4.376-0.4v0.011
			c-0.874-0.076-1.733-0.16-2.614-0.232v-0.001c-0.052-0.004-0.105-0.008-0.157-0.012c-1.144-0.093-2.295-0.183-3.451-0.269v0.009
			c-0.872-0.065-1.735-0.136-2.614-0.197v-0.001c-0.043-0.003-0.087-0.005-0.13-0.008c-5.213-0.362-10.539-0.655-15.965-0.874
			c-0.081-0.003-0.162-0.006-0.242-0.009c-2.63-0.105-5.283-0.192-7.957-0.262c-0.133-0.004-0.266-0.007-0.399-0.011
			c-2.623-0.067-5.267-0.115-7.928-0.147c-0.124-0.002-0.245-0.005-0.369-0.007v0.005c-2.285-0.027-4.579-0.045-6.891-0.045
			c-2.31,0-4.607,0.014-6.891,0.04c-0.005,0-0.009,0-0.014,0c-1.727,0.02-3.444,0.049-5.155,0.083
			c-0.244,0.005-0.488,0.009-0.732,0.014c-1.661,0.036-3.314,0.078-4.959,0.127c-0.256,0.008-0.511,0.016-0.766,0.024
			c-3.439,0.107-6.842,0.243-10.204,0.409c-0.156,0.008-0.312,0.015-0.467,0.023c-1.668,0.083-3.326,0.174-4.973,0.271
			c-0.169,0.01-0.337,0.02-0.506,0.03c-3.419,0.205-6.793,0.439-10.116,0.702c-0.056,0.004-0.113,0.009-0.169,0.013
			c-1.65,0.131-3.286,0.27-4.911,0.415c-0.054,0.005-0.11,0.009-0.164,0.014v0.001c-0.88,0.079-1.742,0.167-2.614,0.25v-0.009
			c-1.057,0.1-2.107,0.204-3.153,0.31c-0.151,0.015-0.304,0.029-0.455,0.045v0.002c-0.875,0.09-1.747,0.182-2.614,0.275v-0.001
			c-0.085,0.009-0.168,0.02-0.254,0.029c-1.33,0.145-2.648,0.295-3.957,0.449c-0.09,0.011-0.182,0.02-0.273,0.031v0.002
			c-6.768,0.801-13.256,1.726-19.417,2.764v-0.002c-0.089,0.015-0.176,0.031-0.266,0.046c-1.174,0.199-2.339,0.401-3.49,0.608
			c-0.036,0.006-0.071,0.013-0.107,0.019c-2.475,0.446-4.893,0.91-7.25,1.393c-0.023,0.005-0.047,0.01-0.07,0.014
			c-1.127,0.231-2.239,0.466-3.338,0.705c-0.049,0.011-0.1,0.021-0.149,0.032v0.002c-0.879,0.191-1.754,0.384-2.614,0.581v0
			c-0.002,0-0.004,0.001-0.006,0.001c-1.17,0.267-2.318,0.541-3.453,0.817c-0.049,0.012-0.1,0.023-0.149,0.035v0.002
			c-0.88,0.215-1.755,0.432-2.614,0.652v-0.001c-0.013,0.003-0.025,0.007-0.038,0.01c-1.477,0.38-2.922,0.766-4.334,1.161
			c-0.036,0.01-0.075,0.02-0.112,0.03v0.001c-7.454,2.089-13.98,4.39-19.417,6.862v-0.001
			C82.367,215.414,82.305,215.444,82.241,215.473z"/>
		<path style="fill:#EDA33C;" d="M212.598,243.465c-86.048,0-155.804,21.23-155.804,47.418S126.55,338.3,212.598,338.3
			c86.048,0,155.804-21.23,155.804-47.418S298.647,243.465,212.598,243.465z"/>
		<path style="fill:#EDA33C;" d="M212.598,63.9c7.186,0,13.011-4.456,13.011-9.954s-5.825-9.954-13.011-9.954
			c-7.186,0-13.012,4.457-13.012,9.954S205.412,63.9,212.598,63.9z"/>
		<path style="fill:#EDA33C;" d="M310.545,77.319c7.186,0,13.012-4.456,13.012-9.954s-5.826-9.954-13.012-9.954
			s-13.011,4.456-13.011,9.954S303.359,77.319,310.545,77.319z"/>
		<path style="fill:#EDA33C;" d="M114.651,77.319c7.186,0,13.011-4.456,13.011-9.954s-5.825-9.954-13.011-9.954
			c-7.186,0-13.011,4.456-13.011,9.954S107.465,77.319,114.651,77.319z"/>
		<path style="fill:#EDA33C;" d="M397.687,89.843c-7.186,0-13.011,4.456-13.011,9.954c0,5.497,5.825,9.954,13.011,9.954
			c7.186,0,13.011-4.456,13.011-9.954C410.698,94.299,404.873,89.843,397.687,89.843z"/>
		<path style="fill:#EDA33C;" d="M40.521,99.797c0-5.497-5.825-9.954-13.011-9.954s-13.012,4.456-13.012,9.954
			c0,5.497,5.825,9.954,13.012,9.954S40.521,105.294,40.521,99.797z"/>
	</g>
	<g>
		<path style="fill:#F6CD85;" d="M389.263,117.907c-1.355,2.031-2.734,4.027-4.133,5.985c-1.398,1.959-2.816,3.88-4.248,5.764
			c-4.296,5.651-8.721,10.963-13.147,15.908c-2.213,2.473-4.426,4.855-6.622,7.142c-0.732,0.762-1.463,1.514-2.191,2.255
			c-2.912,2.965-5.785,5.76-8.582,8.378c-1.398,1.309-2.777,2.574-4.132,3.793c-0.677,0.61-1.349,1.208-2.014,1.795
			c-1.33,1.174-2.633,2.303-3.905,3.384c-2.544,2.164-4.963,4.141-7.218,5.924c-0.321-0.624-0.647-1.269-0.976-1.926
			c-0.104-0.207-0.209-0.421-0.313-0.631c-0.23-0.464-0.461-0.933-0.694-1.412c-0.122-0.25-0.244-0.503-0.366-0.757
			c-0.227-0.47-0.454-0.949-0.683-1.433c-0.12-0.254-0.24-0.506-0.36-0.764c-0.271-0.581-0.544-1.173-0.818-1.773
			c-0.075-0.164-0.149-0.323-0.224-0.489c-0.341-0.753-0.685-1.522-1.028-2.303c-0.113-0.256-0.225-0.519-0.338-0.778
			c-0.236-0.543-0.473-1.09-0.71-1.646c-0.138-0.324-0.276-0.652-0.414-0.981c-0.217-0.517-0.434-1.038-0.651-1.565
			c-0.14-0.339-0.279-0.678-0.419-1.022c-0.231-0.57-0.462-1.149-0.693-1.731c-0.12-0.302-0.24-0.6-0.359-0.906
			c-0.334-0.853-0.667-1.717-0.997-2.594c-0.118-0.314-0.235-0.635-0.353-0.951c-0.222-0.597-0.444-1.196-0.664-1.803
			c-0.146-0.403-0.291-0.811-0.436-1.218c-0.192-0.539-0.383-1.081-0.573-1.628c-0.148-0.427-0.296-0.855-0.443-1.287
			c-0.19-0.559-0.379-1.124-0.567-1.691c-0.139-0.419-0.279-0.836-0.417-1.26c-0.253-0.777-0.501-1.563-0.748-2.353
			c-0.159-0.508-0.315-1.021-0.471-1.534c-0.199-0.654-0.398-1.309-0.592-1.972c-0.138-0.468-0.272-0.942-0.407-1.414
			c-0.16-0.56-0.319-1.121-0.476-1.686c-0.139-0.501-0.276-1.003-0.412-1.508c-0.151-0.56-0.299-1.124-0.446-1.689
			c-0.131-0.502-0.262-1.004-0.39-1.51c-0.162-0.643-0.319-1.291-0.475-1.94c-0.163-0.673-0.323-1.348-0.479-2.028
			c-0.177-0.769-0.353-1.538-0.522-2.314c-0.112-0.514-0.218-1.033-0.327-1.55c-0.123-0.589-0.246-1.178-0.364-1.771
			c-0.109-0.546-0.215-1.094-0.319-1.644c-0.11-0.581-0.218-1.163-0.323-1.747c-0.099-0.55-0.198-1.101-0.293-1.654
			c-0.106-0.623-0.207-1.25-0.307-1.877c-0.083-0.518-0.169-1.033-0.248-1.553c-0.161-1.064-0.312-2.133-0.454-3.207
			c-0.069-0.521-0.129-1.046-0.194-1.57c-0.079-0.64-0.157-1.28-0.228-1.923c-0.063-0.562-0.12-1.127-0.177-1.691
			c-0.062-0.618-0.121-1.236-0.177-1.856c-0.051-0.568-0.1-1.136-0.145-1.706c-0.051-0.65-0.095-1.301-0.139-1.954
			c-0.036-0.537-0.075-1.074-0.105-1.613c-0.063-1.116-0.115-2.235-0.153-3.357c-1.142,34.73,10.656,67.642,20.302,87.805
			c2.264,0.63,4.458,1.275,6.575,1.936c13.612-11.217,31.656-28.374,47.397-50.202c0-0.001,0.001-0.002,0.001-0.003
			c0.937-2.654,1.931-5.323,2.983-7.998c0.035-0.088,0.069-0.176,0.104-0.264c1.021-2.588,2.099-5.182,3.233-7.775
			c0.065-0.149,0.13-0.298,0.195-0.447c0.548-1.246,1.11-2.491,1.686-3.736c0.079-0.171,0.16-0.343,0.24-0.514
			c0.265-0.569,0.542-1.137,0.813-1.705c-0.227-0.047-0.458-0.086-0.68-0.141C391.814,114.013,390.551,115.978,389.263,117.907z"/>
		<path style="fill:#F6CD85;" d="M212.102,66.71c-1.225,12.984-4.69,25.52-9.38,37.149c-1.607,3.984-3.356,7.863-5.205,11.617
			c-2.465,5.006-5.108,9.791-7.828,14.312c-0.68,1.13-1.365,2.244-2.053,3.341c-1.376,2.193-2.766,4.318-4.157,6.369
			c-0.695,1.025-1.39,2.032-2.084,3.02c-1.388,1.975-2.771,3.874-4.135,5.691c-2.729,3.634-5.386,6.939-7.871,9.874
			c-1.243,1.467-2.442,2.842-3.586,4.118c-1.144,1.276-2.233,2.455-3.254,3.529c-3.185-3.464-6.683-7.512-10.304-12.076
			c-1.207-1.521-2.428-3.1-3.655-4.733c-0.614-0.817-1.229-1.647-1.845-2.491c-1.232-1.687-2.467-3.428-3.699-5.22
			c-2.463-3.584-4.909-7.372-7.283-11.343c-8.649-14.469-16.323-31.382-20.317-49.751c-0.239,0.01-0.475,0.028-0.716,0.029
			c0.085,1.228,0.161,2.455,0.213,3.68c0.001,0.02,0.001,0.04,0.002,0.061c0.06,1.425,0.098,2.848,0.116,4.267v0
			c7.202,35.439,28.333,65.601,44.084,83.592c2.467-0.23,4.956-0.444,7.464-0.642c17.232-19.475,45.87-59.99,45.985-104.375
			C212.427,66.73,212.266,66.714,212.102,66.71z"/>
		<path style="fill:#F6CD85;" d="M310.137,88.149c0.018-1.413,0.056-2.829,0.116-4.248c0.001-0.027,0.002-0.054,0.003-0.081
			c0.052-1.223,0.128-2.448,0.213-3.674c-0.242-0.001-0.477-0.02-0.716-0.029c-0.979,4.504-2.167,8.925-3.55,13.238
			c-0.774,2.415-1.605,4.797-2.486,7.145c-2.202,5.87-4.716,11.524-7.432,16.922c-10.32,20.514-23.55,37.338-33.635,48.308
			c-4.084-4.299-9.254-10.254-14.712-17.522c-2.047-2.725-4.134-5.635-6.219-8.712c-1.39-2.051-2.78-4.176-4.157-6.369
			c-2.065-3.29-4.1-6.735-6.063-10.315c-0.655-1.193-1.301-2.402-1.938-3.625c-5.732-11.009-10.692-23.189-13.743-36.051
			c-1.273-5.368-2.198-10.858-2.723-16.427c-0.164,0.004-0.325,0.02-0.49,0.02c0.115,44.385,28.752,84.9,45.985,104.375
			c2.509,0.198,4.997,0.412,7.464,0.642c15.75-17.991,36.882-48.154,44.084-83.592C310.137,88.152,310.137,88.151,310.137,88.149z"
			/>
		<path style="fill:#F6CD85;" d="M114.992,95.065c-0.039,1.122-0.091,2.241-0.154,3.357c-0.03,0.539-0.069,1.075-0.105,1.613
			c-0.043,0.652-0.087,1.304-0.138,1.953c-0.045,0.57-0.095,1.138-0.145,1.706c-0.055,0.62-0.114,1.238-0.177,1.856
			c-0.057,0.565-0.114,1.13-0.177,1.692c-0.071,0.64-0.149,1.276-0.227,1.913c-0.065,0.528-0.126,1.057-0.195,1.583
			c-0.142,1.073-0.293,2.141-0.453,3.203c-0.078,0.52-0.165,1.035-0.248,1.552c-0.1,0.628-0.201,1.255-0.307,1.879
			c-0.094,0.553-0.194,1.103-0.293,1.653c-0.105,0.584-0.212,1.166-0.323,1.747c-0.105,0.55-0.211,1.1-0.32,1.647
			c-0.118,0.589-0.239,1.175-0.362,1.76c-0.109,0.522-0.216,1.045-0.329,1.563c-0.165,0.757-0.336,1.507-0.509,2.256
			c-0.163,0.709-0.33,1.413-0.5,2.114c-0.154,0.636-0.307,1.272-0.466,1.902c-0.129,0.511-0.262,1.018-0.394,1.525
			c-0.146,0.561-0.293,1.121-0.443,1.678c-0.136,0.506-0.274,1.01-0.413,1.512c-0.156,0.561-0.314,1.118-0.473,1.674
			c-0.137,0.477-0.273,0.956-0.412,1.43c-0.193,0.657-0.39,1.306-0.588,1.955c-0.157,0.517-0.315,1.033-0.475,1.545
			c-0.247,0.79-0.496,1.576-0.748,2.353c-0.138,0.426-0.279,0.844-0.419,1.266c-0.187,0.562-0.373,1.123-0.563,1.678
			c-0.148,0.436-0.298,0.868-0.448,1.299c-0.189,0.544-0.379,1.083-0.57,1.619c-0.146,0.409-0.291,0.818-0.437,1.222
			c-0.219,0.604-0.44,1.2-0.661,1.794c-0.119,0.32-0.237,0.644-0.357,0.961c-0.33,0.874-0.661,1.736-0.994,2.587
			c-0.123,0.314-0.247,0.621-0.37,0.932c-0.227,0.572-0.454,1.141-0.681,1.702c-0.142,0.35-0.284,0.696-0.427,1.041
			c-0.214,0.521-0.429,1.037-0.643,1.547c-0.139,0.331-0.278,0.662-0.418,0.989c-0.236,0.554-0.471,1.099-0.707,1.64
			c-0.114,0.261-0.228,0.526-0.341,0.784c-0.343,0.78-0.685,1.548-1.026,2.299c-0.077,0.17-0.153,0.332-0.23,0.5
			c-0.272,0.596-0.544,1.186-0.814,1.763c-0.121,0.259-0.241,0.513-0.362,0.768c-0.228,0.482-0.455,0.959-0.68,1.427
			c-0.123,0.255-0.246,0.51-0.368,0.761c-0.232,0.478-0.463,0.945-0.692,1.408c-0.105,0.212-0.211,0.428-0.316,0.637
			c-0.325,0.649-0.647,1.286-0.964,1.902c-0.004,0.007-0.007,0.014-0.011,0.021c-4.511-3.566-9.675-7.908-15.186-12.966
			c-2.756-2.529-5.598-5.237-8.488-8.117c-5.78-5.759-11.753-12.205-17.611-19.279c-1.464-1.768-2.922-3.576-4.367-5.422
			c-4.986-6.368-9.826-13.193-14.329-20.433c-0.223,0.055-0.453,0.094-0.68,0.141c0.271,0.57,0.549,1.139,0.814,1.71
			c0.079,0.169,0.159,0.338,0.237,0.507c0.576,1.246,1.139,2.493,1.688,3.741c0.065,0.148,0.129,0.295,0.193,0.443
			c1.135,2.595,2.214,5.192,3.236,7.783c0.033,0.085,0.067,0.169,0.1,0.254c1.052,2.676,2.047,5.346,2.984,8.002
			c0.001,0.002,0.001,0.004,0.002,0.006c15.741,21.827,33.785,38.985,47.397,50.201c2.118-0.661,4.312-1.306,6.575-1.936
			C104.336,162.707,116.134,129.795,114.992,95.065z"/>
		<path style="fill:#F6CD85;" d="M146.787,180.268c-10.374,1.628-18.477,4.587-18.098,6.608c0.379,2.022,9.095,2.341,19.469,0.713
			c10.374-1.628,18.477-4.587,18.098-6.608C165.877,178.959,157.161,178.639,146.787,180.268z"/>
		<path style="fill:#F6CD85;" d="M126.022,181.691c-0.89,0.145-1.511,0.835-1.388,1.541c0.123,0.706,0.944,1.161,1.834,1.017
			s1.511-0.835,1.388-1.541C127.733,182.001,126.912,181.546,126.022,181.691z"/>
		<path style="fill:#F6CD85;" d="M122.136,186.444c-1.458,0.237-2.476,1.371-2.273,2.532c0.202,1.161,1.548,1.91,3.006,1.673
			c1.458-0.237,2.475-1.371,2.273-2.532C124.939,186.956,123.593,186.207,122.136,186.444z"/>
		<polygon style="fill:#F6CD85;" points="249.951,175.945 245.302,183.705 254.805,184.352 259.454,176.592 		"/>
		<polygon style="fill:#F6CD85;" points="237.186,175.46 232.536,183.221 235.235,183.404 239.885,175.644 		"/>
		<path style="fill:#F6CD85;" d="M82.431,239.141v-23.757c-0.064,0.029-0.126,0.059-0.19,0.088
			c-0.396,0.181-0.788,0.363-1.172,0.546c-0.046,0.022-0.091,0.044-0.137,0.066c-0.794,0.38-1.554,0.765-2.297,1.153
			c-1.252,0.654-2.439,1.318-3.541,1.992c-0.094,0.058-0.191,0.115-0.285,0.173c-0.255,0.158-0.502,0.318-0.749,0.477
			c-0.127,0.082-0.256,0.164-0.38,0.246c-0.224,0.148-0.44,0.296-0.657,0.445c-0.139,0.096-0.279,0.191-0.415,0.287
			c-0.2,0.141-0.394,0.282-0.587,0.424c-0.144,0.106-0.288,0.212-0.429,0.318c-0.178,0.135-0.353,0.27-0.525,0.405
			c-0.147,0.115-0.291,0.231-0.434,0.347c-0.158,0.129-0.315,0.258-0.468,0.388c-0.146,0.124-0.288,0.248-0.429,0.372
			c-0.142,0.125-0.283,0.249-0.419,0.375c-0.144,0.132-0.282,0.264-0.42,0.397c-0.124,0.119-0.249,0.238-0.368,0.357
			c-0.143,0.143-0.279,0.287-0.416,0.431c-0.105,0.11-0.213,0.221-0.314,0.331c-0.148,0.163-0.287,0.326-0.427,0.49
			c-0.08,0.093-0.164,0.186-0.241,0.28c-0.208,0.253-0.406,0.507-0.594,0.762c-0.003,0.005-0.007,0.009-0.01,0.013
			c-0.243,0.537-0.458,1.059-0.648,1.564c-0.19,0.504-0.355,0.992-0.499,1.46c-0.096,0.312-0.182,0.615-0.259,0.91
			c-0.155,0.589-0.274,1.142-0.366,1.654c-0.118,0.659-0.19,1.249-0.232,1.765c-0.122,1.488,0.004,2.346,0.004,2.346v0.003
			l0.44,18.626c0.087-0.377,0.193-0.775,0.311-1.185c0.298-1.036,0.698-2.167,1.249-3.385
			C69.445,246.325,74.893,242.569,82.431,239.141z"/>
		<path style="fill:#F6CD85;" d="M129.837,226.172v-23.757c-0.089,0.015-0.176,0.031-0.266,0.046
			c-1.174,0.199-2.339,0.401-3.49,0.608c-0.036,0.006-0.071,0.013-0.107,0.019c-2.475,0.446-4.893,0.91-7.25,1.393
			c-0.023,0.005-0.047,0.01-0.07,0.014c-1.127,0.231-2.239,0.466-3.338,0.705c-0.049,0.011-0.1,0.021-0.149,0.032v23.757
			C119.812,227.976,124.712,227.035,129.837,226.172z"/>
		<path style="fill:#F6CD85;" d="M112.553,229.572v-23.758c-0.002,0-0.004,0.001-0.006,0.001c-1.17,0.267-2.318,0.541-3.453,0.817
			c-0.049,0.012-0.1,0.023-0.149,0.035v23.757C110.129,230.135,111.331,229.851,112.553,229.572z"/>
		<path style="fill:#F6CD85;" d="M153.738,222.901v-23.759c-0.085,0.009-0.168,0.02-0.254,0.029
			c-1.33,0.145-2.648,0.295-3.957,0.449c-0.09,0.011-0.182,0.02-0.273,0.031v23.757C150.735,223.233,152.23,223.064,153.738,222.901
			z"/>
		<path style="fill:#F6CD85;" d="M205.708,220.698v-24.554c-0.005,0-0.009,0-0.014,0c-1.727,0.02-3.444,0.049-5.155,0.083
			c-0.244,0.005-0.488,0.009-0.732,0.014c-1.661,0.036-3.314,0.078-4.959,0.127c-0.256,0.008-0.511,0.016-0.766,0.024
			c-3.439,0.107-6.842,0.243-10.204,0.409c-0.156,0.008-0.312,0.015-0.467,0.023c-1.668,0.083-3.326,0.174-4.973,0.271
			c-0.169,0.01-0.337,0.02-0.506,0.03c-3.419,0.205-6.793,0.439-10.116,0.702c-0.056,0.004-0.113,0.009-0.169,0.013
			c-1.65,0.131-3.286,0.27-4.911,0.415c-0.054,0.005-0.11,0.009-0.164,0.014v23.757
			C168.596,221.486,199.354,221.041,205.708,220.698z"/>
		<path style="fill:#F6CD85;" d="M159.959,222.267v-23.756c-1.057,0.1-2.107,0.204-3.153,0.31c-0.151,0.015-0.304,0.029-0.455,0.045
			v23.76C157.547,222.503,158.748,222.382,159.959,222.267z"/>
		<path style="fill:#F6CD85;" d="M102.944,231.986c1.116-0.306,2.231-0.612,3.387-0.909v-23.756
			c-0.013,0.003-0.025,0.007-0.038,0.01c-1.477,0.38-2.922,0.766-4.334,1.161c-0.036,0.01-0.075,0.02-0.112,0.03v19.003
			L102.944,231.986z"/>
		<path style="fill:#F6CD85;" d="M258.701,221.689v-23.755c-0.052-0.004-0.105-0.008-0.157-0.012
			c-1.144-0.093-2.295-0.183-3.451-0.269v23.754C256.303,221.497,257.505,221.591,258.701,221.689z"/>
		<path style="fill:#F6CD85;" d="M265.798,222.32v-23.756c-0.035-0.003-0.072-0.006-0.107-0.01c-1.448-0.139-2.907-0.272-4.376-0.4
			v23.754C262.821,222.04,264.315,222.177,265.798,222.32z"/>
		<path style="fill:#F6CD85;" d="M313.205,229.699v-23.754c-0.051-0.012-0.104-0.023-0.155-0.034
			c-1.344-0.309-2.712-0.612-4.101-0.909c-0.077-0.017-0.15-0.034-0.227-0.05v23.754
			C310.243,229.028,311.737,229.36,313.205,229.699z"/>
		<path style="fill:#F6CD85;" d="M306.107,228.16v-23.753c-0.06-0.012-0.121-0.024-0.181-0.036
			c-1.096-0.222-2.201-0.441-3.322-0.656c-0.035-0.007-0.07-0.014-0.105-0.021v23.756
			C303.716,227.683,304.921,227.919,306.107,228.16z"/>
		<path style="fill:#F6CD85;" d="M299.886,226.963v-23.756c-0.025-0.005-0.051-0.009-0.076-0.013
			c-2.289-0.417-4.627-0.817-7.013-1.201c-0.08-0.013-0.16-0.025-0.24-0.038c-1.911-0.306-3.859-0.599-5.828-0.884
			c-0.297-0.043-0.591-0.087-0.889-0.129c-0.21-0.03-0.415-0.061-0.626-0.091v23.754
			C290.298,225.32,295.195,226.108,299.886,226.963z"/>
		<path style="fill:#F6CD85;" d="M334.334,213.906v21.853c14.017,5.016,23.239,10.935,25.951,17.343
			c0.175,0.767,0.298,1.483,0.384,2.143v-19.001c0,0,0.056-0.265,0.104-0.758c0.024-0.246,0.046-0.549,0.057-0.904
			c0.012-0.355,0.013-0.762-0.003-1.216c-0.013-0.363-0.038-0.757-0.078-1.178c-0.02-0.211-0.044-0.428-0.073-0.653
			c-0.086-0.673-0.211-1.406-0.391-2.19c-0.001-0.001-0.001-0.002-0.001-0.003c-0.157-0.37-0.343-0.739-0.543-1.106
			c-0.055-0.1-0.112-0.199-0.169-0.299c-0.179-0.31-0.373-0.619-0.582-0.927c-0.042-0.062-0.08-0.124-0.123-0.186
			c-0.256-0.364-0.535-0.726-0.832-1.087c-0.066-0.08-0.137-0.16-0.206-0.24c-0.257-0.301-0.528-0.601-0.815-0.9
			c-0.072-0.075-0.141-0.151-0.215-0.226c-0.357-0.363-0.733-0.723-1.132-1.082c-0.04-0.036-0.083-0.071-0.124-0.107
			c-0.37-0.328-0.758-0.654-1.163-0.978c-0.086-0.069-0.171-0.138-0.259-0.206c-0.918-0.721-1.92-1.433-3.006-2.134
			c-0.077-0.05-0.155-0.099-0.233-0.149c-1.127-0.719-2.337-1.427-3.634-2.123c-0.031-0.017-0.063-0.033-0.094-0.05
			c-0.646-0.345-1.312-0.688-1.999-1.027c-0.024-0.012-0.047-0.023-0.07-0.035c-1.431-0.705-2.949-1.398-4.551-2.076
			c-0.022-0.009-0.044-0.019-0.066-0.028c-0.608-0.257-1.229-0.512-1.861-0.766c-0.315-0.126-0.641-0.25-0.961-0.375
			c-0.324-0.126-0.643-0.254-0.972-0.379c-0.366-0.139-0.744-0.276-1.117-0.413c-0.295-0.109-0.585-0.219-0.885-0.327
			c-0.393-0.142-0.798-0.281-1.198-0.422c-0.285-0.1-0.563-0.201-0.851-0.299v7.597L334.334,213.906z"/>
		<path style="fill:#F6CD85;" d="M252.48,221.217v-23.755c-0.043-0.003-0.087-0.005-0.13-0.008
			c-5.213-0.362-10.54-0.655-15.965-0.874c-0.081-0.003-0.162-0.006-0.242-0.009c-2.63-0.105-5.283-0.192-7.957-0.262
			c-0.133-0.004-0.266-0.007-0.399-0.011c-2.623-0.067-5.267-0.115-7.928-0.147c-0.124-0.002-0.245-0.005-0.369-0.007v24.551
			C222.333,220.849,249.698,221.024,252.48,221.217z"/>
		<path style="fill:#F6CD85;" d="M151.404,258.11c9.851-1.546,17.546-4.356,17.186-6.275c-0.36-1.92-8.637-2.223-18.488-0.677
			c-9.851,1.546-17.546,4.356-17.186,6.275C133.275,259.353,141.553,259.656,151.404,258.11z"/>
		<path style="fill:#F6CD85;" d="M130.801,254.939c0.72-0.12,1.211-0.761,1.097-1.432c-0.114-0.671-0.79-1.118-1.509-0.999
			c-0.72,0.119-1.211,0.761-1.097,1.432C129.406,254.611,130.081,255.059,130.801,254.939z"/>
		<path style="fill:#F6CD85;" d="M124.764,259.396c0.189,1.103,1.362,1.83,2.619,1.622c1.257-0.207,2.123-1.27,1.934-2.373
			c-0.189-1.103-1.361-1.829-2.619-1.622C125.441,257.23,124.575,258.292,124.764,259.396z"/>
		<polygon style="fill:#F6CD85;" points="252.678,255.036 257.094,247.667 248.07,247.053 243.654,254.423 		"/>
		<polygon style="fill:#F6CD85;" points="234.095,254.137 238.51,246.767 235.947,246.593 231.532,253.962 		"/>
		<g>
			<path style="fill:#192A3B;" d="M238.858,183.811c1.502,0.068,2.993,0.139,4.466,0.218l5.128-8.201
				c-1.458-0.102-2.935-0.196-4.424-0.285L238.858,183.811z"/>
			<path style="fill:#192A3B;" d="M117.014,189.997c-0.276-1.474,0.991-3.093,3.419-4.696c-32.471,8.998-54.13,23.075-66.682,39.813
				c14.347-13.352,37.207-24.525,67.392-31.966C118.744,192.387,117.263,191.329,117.014,189.997z"/>
			<path style="fill:#192A3B;" d="M321.666,197.059c1.286,0.424,2.547,0.857,3.792,1.297l3.428-5.483
				c-1.193-0.519-2.407-1.029-3.646-1.529L321.666,197.059z"/>
			<path style="fill:#192A3B;" d="M171.028,176.455c4.293,0.725,7.024,2.054,7.371,3.908c0.254,1.357-0.798,2.837-2.86,4.314
				c11.719-0.933,24.073-1.434,37.059-1.434c6.05,0,11.889,0.086,17.542,0.248l5.242-8.384c-7.248-0.3-14.831-0.457-22.784-0.457
				C197.663,174.65,183.822,175.274,171.028,176.455z"/>
			<path style="fill:#192A3B;" d="M258.48,185.093c21.811,1.903,40.162,5.217,55.705,9.669l3.831-6.127
				c-14.899-5.193-32.852-9.131-54.57-11.483L258.48,185.093z"/>
			<path style="fill:#192A3B;" d="M340.962,198.863l-2.846,4.552c13.73,6.183,24.556,13.535,33.33,21.699
				C364.073,215.282,354.261,206.369,340.962,198.863z"/>
			<path style="fill:#192A3B;" d="M246.646,246.941c-1.385-0.097-2.787-0.186-4.201-0.271l-4.909,7.852
				c1.426,0.064,2.843,0.132,4.241,0.207L246.646,246.941z"/>
			<path style="fill:#192A3B;" d="M121.829,260.398c-0.262-1.4,0.941-2.937,3.247-4.46c-30.835,8.545-51.403,21.913-63.322,37.808
				c13.624-12.679,35.333-23.29,63.997-30.355C123.472,262.667,122.066,261.662,121.829,260.398z"/>
			<path style="fill:#192A3B;" d="M323.027,263.129c-1.133-0.493-2.286-0.978-3.463-1.452l-3.393,5.427
				c1.221,0.402,2.419,0.814,3.601,1.232L323.027,263.129z"/>
			<path style="fill:#192A3B;" d="M180.123,251.249c0.241,1.288-0.758,2.694-2.716,4.096c11.129-0.886,22.86-1.362,35.192-1.362
				c5.745,0,11.29,0.081,16.658,0.236l4.978-7.962c-6.883-0.284-14.084-0.434-21.636-0.434c-14.183,0-27.326,0.592-39.476,1.714
				C177.199,248.227,179.793,249.488,180.123,251.249z"/>
			<path style="fill:#192A3B;" d="M312.705,259.104c-14.148-4.932-31.197-8.671-51.821-10.905l-4.715,7.541
				c20.713,1.807,38.139,4.955,52.898,9.182L312.705,259.104z"/>
			<path style="fill:#192A3B;" d="M334.495,268.817l-2.703,4.323c13.039,5.871,23.32,12.853,31.651,20.606
				C356.442,284.409,347.124,275.945,334.495,268.817z"/>
			<path style="fill:#192A3B;" d="M212.598,268.817c-63.068,0-116.032,9.053-130.871,21.29l-14.45,10.781l10.509-2.243
				c3.871,14.885,62.745,26.705,134.812,26.705c71.909,0,130.679-11.769,134.782-26.607l10.051,2.145l-12.175-9.083
				C333.445,278.716,278.548,268.817,212.598,268.817z"/>
			<path style="fill:#192A3B;" d="M212.598,61.056c5.133,0,9.294-3.183,9.294-7.11c0-3.927-4.161-7.11-9.294-7.11
				c-5.133,0-9.294,3.183-9.294,7.11c0,1.226,0.406,2.38,1.121,3.387c0.707-1.101,2.183-1.86,3.894-1.86
				c2.397,0,4.341,1.487,4.341,3.321c0,0.852-0.423,1.627-1.113,2.215C211.892,61.039,212.242,61.056,212.598,61.056z"/>
			<path style="fill:#192A3B;" d="M310.545,74.475c5.133,0,9.294-3.183,9.294-7.11s-4.161-7.11-9.294-7.11
				c-5.133,0-9.294,3.183-9.294,7.11c0,1.226,0.406,2.38,1.121,3.387c0.707-1.101,2.183-1.86,3.894-1.86
				c2.398,0,4.341,1.487,4.341,3.321c0,0.852-0.423,1.627-1.113,2.215C309.839,74.458,310.19,74.475,310.545,74.475z"/>
			<path style="fill:#192A3B;" d="M114.651,74.475c5.133,0,9.294-3.183,9.294-7.11s-4.161-7.11-9.294-7.11
				c-5.133,0-9.294,3.183-9.294,7.11c0,1.226,0.406,2.38,1.121,3.387c0.707-1.101,2.183-1.86,3.894-1.86
				c2.398,0,4.341,1.487,4.341,3.321c0,0.852-0.423,1.627-1.113,2.215C113.945,74.458,114.295,74.475,114.651,74.475z"/>
			<path style="fill:#192A3B;" d="M397.687,87.012c-8.735,0-15.842,5.735-15.842,12.784c0,4.895,3.431,9.151,8.45,11.299
				c-18.308,29.271-41.727,50.926-56.264,62.746c-2.639-5.367-5.919-12.647-9.1-21.307c2.547-13.769,6.053-28.478,10.854-42.897
				c0.442,0.073,0.9,0.113,1.37,0.113c3.593,0,6.506-2.228,6.506-4.977c0-2.749-2.913-4.977-6.506-4.977s-6.506,2.228-6.506,4.977
				c0,2.314,2.067,4.253,4.863,4.811c-4.523,11.098-9.605,21.25-14.787,30.323c-5.188-17.334-9.013-38.261-7.414-59.965
				c7.419-1.06,13.076-6.29,13.076-12.576c0-7.049-7.107-12.784-15.842-12.784s-15.842,5.735-15.842,12.784
				c0,6.041,5.226,11.105,12.217,12.433c-4.685,21.278-14.392,40.332-24.164,55.349c-3.104-17.08-5.055-36.521-3.983-56.334
				c0.236,0.02,0.475,0.032,0.717,0.032c3.593,0,6.506-2.228,6.506-4.977c0-2.749-2.913-4.977-6.506-4.977
				c-3.593,0-6.506,2.228-6.506,4.977c0,2.472,2.358,4.517,5.445,4.905c-4.088,29.274-14.574,54.917-24.083,73.035
				c-13.749-17.204-35.039-49.156-38.442-85.364c7.152-1.231,12.535-6.366,12.535-12.499c0-7.049-7.107-12.784-15.842-12.784
				c-8.735,0-15.842,5.735-15.842,12.784c0,6.134,5.383,11.268,12.535,12.499c-3.403,36.209-24.693,68.16-38.442,85.364
				c-9.509-18.118-19.995-43.761-24.083-73.035c3.087-0.388,5.445-2.433,5.445-4.905c0-2.749-2.913-4.977-6.506-4.977
				c-3.593,0-6.506,2.228-6.506,4.977c0,2.749,2.913,4.977,6.506,4.977c0.243,0,0.482-0.012,0.717-0.032
				c1.072,19.812-0.879,39.254-3.983,56.334c-9.772-15.017-19.479-34.072-24.164-55.349c6.991-1.328,12.217-6.392,12.217-12.433
				c0-7.049-7.107-12.784-15.842-12.784s-15.842,5.735-15.842,12.784c0,6.286,5.657,11.516,13.076,12.576
				c1.599,21.704-2.227,42.631-7.414,59.966c-5.182-9.073-10.263-19.225-14.787-30.323c2.796-0.557,4.863-2.497,4.863-4.811
				c0-2.749-2.913-4.977-6.506-4.977c-3.593,0-6.506,2.228-6.506,4.977c0,2.749,2.913,4.977,6.506,4.977
				c0.47,0,0.928-0.04,1.37-0.113c4.801,14.419,8.307,29.128,10.854,42.897c-3.181,8.66-6.46,15.94-9.1,21.306
				c-14.538-11.821-37.956-33.474-56.264-62.746c5.02-2.147,8.45-6.404,8.45-11.299c0-7.049-7.107-12.784-15.842-12.784
				c-8.735,0-15.842,5.735-15.842,12.784c0,7.049,7.107,12.784,15.842,12.784c0.335,0,0.662-0.024,0.992-0.041
				c11.765,24.433,17.781,49.072,20.796,66.255c1.667,9.502,2.615,17.731,3.132,24.195c-4.473,4.419-6.731,9.088-6.731,13.949
				c0,7.532,5.414,14.577,16.068,20.959l1.53,35.555c-6.134,5.463-9.333,11.337-9.333,17.429c0,14.018,16.919,26.887,47.64,36.237
				c29.687,9.035,69.106,14.011,110.994,14.011c41.888,0,81.307-4.976,110.994-14.011c30.721-9.35,47.64-22.219,47.64-36.237
				c0-5.536-2.649-10.891-7.734-15.922v-37.102c10.609-6.372,15.999-13.403,15.999-20.919c0-4.861-2.258-9.531-6.731-13.949
				c0.516-6.463,1.465-14.693,3.132-24.195c3.014-17.182,9.032-41.822,20.796-66.255c0.33,0.017,0.657,0.041,0.992,0.041
				c8.735,0,15.842-5.735,15.842-12.784C413.529,92.747,406.422,87.012,397.687,87.012z M297.534,67.365
				c0-5.497,5.825-9.954,13.011-9.954s13.012,4.456,13.012,9.954s-5.826,9.954-13.012,9.954S297.534,72.863,297.534,67.365z
				 M273.45,132.251c0,0,0.788,5.254,2.334,12.983c-4.924,6.717-9.544,12.244-13.164,16.309c-0.458-0.504-0.968-1.073-1.499-1.673
				C268.457,145.722,273.45,132.251,273.45,132.251z M199.587,53.946c0-5.497,5.825-9.954,13.012-9.954
				c7.186,0,13.011,4.457,13.011,9.954s-5.825,9.954-13.011,9.954C205.412,63.9,199.587,59.443,199.587,53.946z M151.746,132.251
				c0,0,4.993,13.472,12.329,27.619c-0.532,0.6-1.041,1.169-1.499,1.673c-3.62-4.065-8.24-9.592-13.164-16.309
				C150.959,137.504,151.746,132.251,151.746,132.251z M101.64,67.365c0-5.497,5.825-9.954,13.011-9.954
				c7.186,0,13.011,4.456,13.011,9.954s-5.825,9.954-13.011,9.954C107.465,77.319,101.64,72.863,101.64,67.365z M27.51,109.75
				c-7.186,0-13.012-4.456-13.012-9.954c0-5.497,5.825-9.954,13.012-9.954s13.011,4.456,13.011,9.954
				C40.521,105.294,34.696,109.75,27.51,109.75z M368.402,290.882c0,26.188-69.756,47.418-155.804,47.418
				c-86.048,0-155.804-21.23-155.804-47.418s69.756-47.418,155.804-47.418C298.647,243.465,368.402,264.694,368.402,290.882z
				 M101.848,208.524v-0.001c0.036-0.01,0.075-0.02,0.112-0.03c1.412-0.395,2.857-0.782,4.334-1.161
				c0.013-0.003,0.025-0.007,0.038-0.01v0.001c0.859-0.22,1.734-0.437,2.614-0.652v-0.002c0.049-0.012,0.1-0.023,0.149-0.035
				c1.134-0.277,2.283-0.55,3.453-0.817c0.002-0.001,0.004-0.001,0.006-0.001v0c0.86-0.197,1.735-0.389,2.614-0.581v-0.002
				c0.049-0.011,0.1-0.021,0.149-0.032c1.1-0.239,2.211-0.474,3.338-0.705c0.023-0.005,0.047-0.01,0.07-0.014
				c2.357-0.482,4.775-0.947,7.25-1.393c0.036-0.006,0.071-0.013,0.107-0.019c1.15-0.207,2.315-0.409,3.49-0.608
				c0.089-0.015,0.176-0.031,0.266-0.046v0.002c6.161-1.038,12.648-1.963,19.417-2.764v-0.002c0.09-0.011,0.182-0.02,0.273-0.031
				c1.31-0.154,2.627-0.304,3.957-0.449c0.085-0.009,0.168-0.02,0.254-0.029v0.001c0.867-0.094,1.738-0.186,2.614-0.275v-0.002
				c0.15-0.015,0.304-0.029,0.455-0.045c1.046-0.106,2.096-0.21,3.153-0.31v0.009c0.872-0.083,1.734-0.171,2.614-0.25v-0.001
				c0.054-0.005,0.109-0.009,0.164-0.014c1.624-0.145,3.261-0.284,4.911-0.415c0.056-0.005,0.113-0.009,0.169-0.013
				c3.323-0.263,6.697-0.497,10.116-0.702c0.169-0.01,0.337-0.02,0.506-0.03c1.647-0.097,3.305-0.188,4.973-0.271
				c0.156-0.008,0.312-0.015,0.467-0.023c3.362-0.165,6.765-0.301,10.204-0.409c0.255-0.008,0.51-0.016,0.766-0.024
				c1.645-0.049,3.298-0.092,4.959-0.127c0.243-0.005,0.488-0.01,0.732-0.014c1.711-0.034,3.428-0.064,5.155-0.083
				c0.005,0,0.009,0,0.014,0c2.284-0.026,4.581-0.04,6.891-0.04c2.311,0,4.606,0.018,6.891,0.045v-0.005
				c0.124,0.001,0.245,0.005,0.369,0.007c2.661,0.033,5.305,0.081,7.928,0.147c0.133,0.003,0.266,0.007,0.399,0.011
				c2.674,0.07,5.327,0.157,7.957,0.262c0.081,0.003,0.162,0.006,0.242,0.009c5.426,0.219,10.753,0.512,15.965,0.874
				c0.043,0.003,0.087,0.005,0.13,0.008v0.001c0.879,0.061,1.741,0.132,2.614,0.197v-0.009c1.156,0.086,2.307,0.176,3.451,0.269
				c0.052,0.004,0.105,0.008,0.157,0.012v0.001c0.881,0.072,1.74,0.156,2.614,0.232v-0.011c1.469,0.128,2.928,0.261,4.376,0.4
				c0.035,0.003,0.072,0.006,0.107,0.01v0c6.726,0.647,13.203,1.417,19.417,2.292v-0.007c0.211,0.03,0.416,0.061,0.626,0.091
				c0.298,0.042,0.592,0.086,0.889,0.129c1.969,0.285,3.917,0.577,5.828,0.884c0.08,0.013,0.16,0.025,0.24,0.038
				c2.385,0.384,4.724,0.784,7.013,1.201c0.025,0.005,0.051,0.009,0.076,0.013v0.001c0.879,0.16,1.75,0.323,2.614,0.487v-0.001
				c0.035,0.007,0.07,0.014,0.105,0.021c1.121,0.214,2.226,0.434,3.322,0.656c0.06,0.012,0.121,0.024,0.181,0.036v0.002
				c0.879,0.179,1.751,0.36,2.614,0.544v-0.001c0.077,0.016,0.15,0.034,0.227,0.05c1.389,0.297,2.757,0.6,4.101,0.909
				c0.051,0.012,0.104,0.023,0.155,0.034v0.001c7.157,1.652,13.666,3.478,19.417,5.452v0c0.288,0.099,0.566,0.2,0.851,0.299
				c0.401,0.14,0.805,0.28,1.198,0.422c0.3,0.108,0.589,0.218,0.885,0.327c0.373,0.138,0.751,0.274,1.117,0.413
				c0.33,0.125,0.648,0.253,0.972,0.379c0.32,0.125,0.647,0.249,0.961,0.375c0.632,0.253,1.252,0.508,1.861,0.766
				c0.022,0.009,0.044,0.019,0.066,0.028c1.601,0.679,3.12,1.371,4.551,2.076c0.024,0.012,0.047,0.023,0.07,0.035
				c0.687,0.339,1.353,0.682,1.999,1.027c0.031,0.017,0.063,0.033,0.094,0.05c1.297,0.696,2.507,1.404,3.634,2.123
				c0.078,0.05,0.156,0.099,0.233,0.149c1.086,0.701,2.088,1.413,3.006,2.134c0.087,0.069,0.173,0.137,0.259,0.206
				c0.404,0.324,0.793,0.65,1.163,0.978c0.04,0.036,0.084,0.071,0.124,0.107c0.399,0.358,0.775,0.719,1.132,1.082
				c0.074,0.075,0.143,0.15,0.215,0.226c0.286,0.298,0.557,0.598,0.815,0.9c0.068,0.08,0.14,0.16,0.206,0.24
				c0.298,0.36,0.577,0.722,0.832,1.087c0.044,0.062,0.081,0.124,0.123,0.186c0.21,0.308,0.403,0.617,0.582,0.927
				c0.057,0.1,0.115,0.199,0.169,0.299c0.2,0.367,0.386,0.736,0.543,1.106c0,0.001,0.001,0.002,0.001,0.003
				c0.179,0.784,0.305,1.517,0.391,2.19c0.029,0.224,0.053,0.442,0.073,0.653c0.04,0.421,0.065,0.815,0.078,1.178
				c0.016,0.454,0.015,0.861,0.003,1.216c-0.012,0.355-0.033,0.658-0.057,0.904c-0.048,0.492-0.104,0.758-0.104,0.758v23.833
				c-6.215-3.995-14.142-7.693-23.462-11.018v-11.321l-2.873,8.534v-32.367l-1.712,5.087l-8.112,24.097l1.745-27.389l-6.857,27.903
				c-9.808-2.571-20.633-4.792-32.259-6.605v-9.021l-2.006,5.959v-22.599l-6.86,20.377l1.218-19.124l-5.548,22.575
				c-18.949-2.333-39.65-3.624-61.348-3.624c-21.695,0-42.396,1.289-61.343,3.62l-5.547-22.572l1.218,19.123l-6.859-20.377v22.599
				l-2.006-5.959v9.023c-11.628,1.813-22.448,4.035-32.258,6.607l-2.856-11.623l-1.096-4.461l-2.906-11.824l1.745,27.389
				l-9.824-29.184v32.367l-2.873-8.534v11.314c-8.69,3.1-16.164,6.524-22.173,10.211l0.281,11.88
				c-0.022,0.017-0.043,0.035-0.065,0.052l-0.753-17.505c-0.118,0.41-0.224,0.808-0.311,1.185l-0.44-18.626l0-0.003
				c0,0-0.126-0.857-0.004-2.346c0.042-0.516,0.114-1.105,0.232-1.765c0.092-0.512,0.211-1.065,0.366-1.654
				c0.077-0.294,0.163-0.598,0.259-0.91c0.144-0.468,0.309-0.955,0.499-1.46c0.19-0.505,0.405-1.026,0.648-1.564
				c0.003-0.004,0.007-0.009,0.01-0.013c0.187-0.255,0.386-0.509,0.594-0.762c0.077-0.094,0.161-0.186,0.241-0.28
				c0.14-0.163,0.279-0.327,0.427-0.49c0.101-0.111,0.209-0.221,0.314-0.331c0.137-0.144,0.273-0.288,0.416-0.431
				c0.119-0.119,0.244-0.238,0.368-0.357c0.138-0.132,0.276-0.265,0.42-0.397c0.137-0.125,0.278-0.25,0.419-0.375
				c0.141-0.124,0.283-0.248,0.429-0.372c0.153-0.13,0.31-0.259,0.468-0.388c0.143-0.116,0.287-0.232,0.434-0.347
				c0.172-0.135,0.347-0.27,0.525-0.405c0.141-0.106,0.284-0.212,0.429-0.318c0.193-0.141,0.387-0.283,0.587-0.424
				c0.136-0.096,0.276-0.192,0.415-0.287c0.216-0.149,0.433-0.297,0.657-0.445c0.125-0.082,0.253-0.164,0.38-0.246
				c0.247-0.16,0.494-0.319,0.749-0.477c0.093-0.058,0.19-0.115,0.285-0.173c1.102-0.675,2.289-1.338,3.541-1.992
				c0.742-0.388,1.502-0.773,2.297-1.153c0.046-0.022,0.091-0.044,0.137-0.066c0.384-0.183,0.777-0.365,1.172-0.546
				c0.064-0.029,0.125-0.059,0.19-0.088v0.001C87.868,212.913,94.394,210.613,101.848,208.524z M376.668,216.939
				c0,6.206-4.642,12.114-13.005,17.487c0.029-1.408-0.08-3.356-0.619-5.711l-0.055-0.243l-0.097-0.229
				c-5.392-12.744-30.185-20.784-50.034-25.285c-27.54-6.245-63.146-9.685-100.259-9.685c-35.132,0-69.282,3.121-96.159,8.788
				c-19.138,4.035-43.729,11.269-52.195,22.813l-0.175,0.238l-0.122,0.269c-1.772,3.919-2.225,7.127-2.299,9.117
				c-8.436-5.393-13.121-11.327-13.121-17.561c0-24.728,73.457-44.773,164.07-44.773S376.668,192.212,376.668,216.939z
				 M66.244,193.487c-1.281-10.215-3.308-20.242-4.93-27.401c5.523,5.603,13.558,13.377,22.004,20.289
				C76.833,188.593,71.129,190.968,66.244,193.487z M120.791,176.94c-3.604,0.661-7.12,1.365-10.548,2.107
				c-0.075-0.594-0.15-1.186-0.225-1.768c1.516-3.151,2.921-6.346,4.212-9.513C116.174,170.603,118.404,173.751,120.791,176.94z
				 M117.206,160.041c2.909-8.031,5.037-15.333,6.378-20.347c2.96,4.887,7.61,12.165,13.357,19.84
				c-1.559,5.779-3.146,10.983-4.639,15.477c-1.126,0.172-2.245,0.347-3.357,0.527C125.408,171.253,121.405,166.058,117.206,160.041
				z M142.353,173.6c0.543-1.754,1.065-3.517,1.562-5.276c1.31,1.551,2.656,3.088,4.033,4.594
				C146.068,173.136,144.201,173.362,142.353,173.6z M189.11,169.789c6.716-9.77,12.44-22.064,16.555-32.152
				c2.962-4.992,5.311-9.369,6.933-12.532c1.622,3.162,3.971,7.54,6.933,12.532c4.115,10.089,9.838,22.382,16.555,32.152
				c-7.716-0.299-15.559-0.453-23.488-0.453C204.669,169.335,196.826,169.49,189.11,169.789z M277.249,172.917
				c1.377-1.506,2.722-3.043,4.033-4.594c0.497,1.76,1.019,3.523,1.562,5.276C280.995,173.362,279.128,173.136,277.249,172.917z
				 M296.251,175.539c-1.112-0.179-2.231-0.355-3.357-0.527c-1.492-4.495-3.08-9.698-4.639-15.477
				c5.747-7.675,10.397-14.954,13.356-19.84c1.341,5.014,3.469,12.316,6.378,20.347
				C303.792,166.058,299.789,171.253,296.251,175.539z M310.967,167.767c1.291,3.167,2.695,6.361,4.212,9.513
				c-0.076,0.581-0.15,1.173-0.225,1.768c-3.427-0.742-6.943-1.446-10.548-2.107C306.793,173.751,309.022,170.603,310.967,167.767z
				 M341.879,186.375c8.446-6.911,16.481-14.685,22.004-20.289c-1.623,7.159-3.65,17.186-4.93,27.401
				C354.067,190.968,348.364,188.593,341.879,186.375z M392.921,113.867c-0.08,0.172-0.161,0.343-0.24,0.514
				c-0.576,1.244-1.137,2.49-1.686,3.736c-0.065,0.149-0.13,0.298-0.195,0.447c-1.134,2.593-2.212,5.187-3.233,7.775
				c-0.035,0.088-0.069,0.176-0.104,0.264c-1.052,2.675-2.046,5.344-2.983,7.998c-9.083,25.727-12.922,50.103-14.355,66.019
				c-1.441-1.182-3.046-2.345-4.816-3.487c-1.156-0.746-2.384-1.48-3.671-2.203c2.324-19.297,7.514-38.469,7.514-38.469
				s-14.628,16.161-30.462,28.856c-0.532-0.171-1.066-0.342-1.608-0.511c-2.117-0.661-4.311-1.306-6.575-1.936
				c-0.384-0.107-0.761-0.215-1.148-0.321c-3.096-0.845-6.297-1.65-9.586-2.419c-11.255-21.544-17.098-47.879-17.098-47.879
				s-12.531,22.84-28.937,40.272c-2.537-0.276-5.099-0.535-7.685-0.776c-2.467-0.23-4.956-0.444-7.464-0.642
				c-3.507-0.277-7.052-0.522-10.632-0.734c-20.825-20.134-35.359-51.676-35.359-51.676s-14.533,31.542-35.359,51.676
				c-3.58,0.212-7.124,0.458-10.632,0.734c-2.508,0.198-4.997,0.412-7.464,0.642c-2.586,0.241-5.148,0.5-7.684,0.776
				c-16.406-17.432-28.937-40.272-28.937-40.272s-5.843,26.336-17.098,47.879c-3.29,0.769-6.49,1.574-9.586,2.419
				c-0.388,0.106-0.765,0.214-1.148,0.321c-2.264,0.63-4.458,1.275-6.575,1.936c-0.542,0.169-1.076,0.34-1.608,0.511
				c-15.835-12.695-30.462-28.856-30.462-28.856s5.19,19.171,7.514,38.469c-1.287,0.724-2.515,1.458-3.671,2.204
				c-1.77,1.142-3.375,2.305-4.816,3.487c-1.433-15.916-5.273-40.293-14.356-66.021c-0.937-2.655-1.932-5.325-2.984-8.002
				c-0.033-0.085-0.067-0.169-0.1-0.254c-1.022-2.591-2.101-5.187-3.236-7.783c-0.065-0.148-0.128-0.295-0.193-0.443
				c-0.549-1.247-1.112-2.495-1.688-3.741c-0.078-0.169-0.158-0.338-0.237-0.507c-0.266-0.571-0.543-1.14-0.814-1.71
				c0.227-0.047,0.457-0.086,0.68-0.141c4.502,7.24,9.343,14.066,14.329,20.433c1.445,1.846,2.902,3.653,4.367,5.422
				c5.858,7.073,11.831,13.519,17.611,19.279c2.89,2.88,5.732,5.588,8.488,8.117c5.511,5.058,10.676,9.4,15.186,12.966
				c0.004-0.007,0.007-0.014,0.011-0.021c0.317-0.617,0.639-1.253,0.964-1.902c0.104-0.209,0.211-0.425,0.316-0.637
				c0.229-0.462,0.46-0.93,0.692-1.408c0.122-0.251,0.245-0.505,0.368-0.761c0.226-0.469,0.452-0.945,0.68-1.427
				c0.121-0.255,0.241-0.509,0.362-0.768c0.27-0.578,0.541-1.167,0.814-1.763c0.077-0.168,0.153-0.33,0.23-0.5
				c0.341-0.752,0.683-1.519,1.026-2.299c0.113-0.258,0.227-0.523,0.341-0.784c0.236-0.541,0.471-1.086,0.707-1.64
				c0.139-0.327,0.278-0.658,0.418-0.989c0.215-0.511,0.429-1.026,0.643-1.547c0.142-0.346,0.285-0.691,0.427-1.041
				c0.228-0.561,0.454-1.13,0.681-1.702c0.123-0.311,0.247-0.618,0.37-0.932c0.333-0.851,0.665-1.713,0.994-2.587
				c0.12-0.317,0.238-0.641,0.357-0.961c0.221-0.594,0.442-1.19,0.661-1.794c0.146-0.404,0.292-0.813,0.437-1.222
				c0.191-0.536,0.381-1.075,0.57-1.619c0.15-0.431,0.299-0.863,0.448-1.299c0.189-0.555,0.376-1.116,0.563-1.678
				c0.14-0.422,0.281-0.84,0.419-1.266c0.252-0.777,0.501-1.563,0.748-2.353c0.16-0.512,0.317-1.028,0.475-1.545
				c0.198-0.649,0.394-1.298,0.588-1.955c0.139-0.473,0.275-0.952,0.412-1.43c0.159-0.556,0.317-1.113,0.473-1.674
				c0.139-0.502,0.277-1.006,0.413-1.512c0.15-0.557,0.297-1.116,0.443-1.678c0.132-0.507,0.265-1.014,0.394-1.525
				c0.159-0.63,0.312-1.266,0.466-1.902c0.17-0.702,0.337-1.406,0.5-2.114c0.173-0.749,0.344-1.5,0.509-2.256
				c0.113-0.518,0.22-1.042,0.329-1.563c0.122-0.585,0.244-1.171,0.362-1.76c0.109-0.547,0.215-1.096,0.32-1.647
				c0.11-0.58,0.217-1.163,0.323-1.747c0.099-0.55,0.198-1.1,0.293-1.653c0.106-0.624,0.207-1.251,0.307-1.879
				c0.083-0.517,0.169-1.033,0.248-1.552c0.161-1.063,0.311-2.131,0.453-3.203c0.069-0.526,0.131-1.055,0.195-1.583
				c0.078-0.637,0.156-1.273,0.227-1.913c0.063-0.563,0.12-1.127,0.177-1.692c0.062-0.617,0.121-1.236,0.177-1.856
				c0.051-0.568,0.1-1.136,0.145-1.706c0.051-0.649,0.095-1.301,0.138-1.953c0.036-0.537,0.075-1.074,0.105-1.613
				c0.191-3.395,0.264-6.822,0.221-10.269v0c-0.018-1.419-0.056-2.841-0.116-4.267c-0.001-0.02-0.001-0.04-0.002-0.061
				c-0.052-1.225-0.128-2.452-0.213-3.68c0.242-0.001,0.478-0.02,0.716-0.029c3.993,18.369,11.668,35.282,20.317,49.751
				c2.374,3.971,4.82,7.759,7.283,11.343c1.231,1.792,2.466,3.533,3.699,5.22c0.616,0.844,1.231,1.674,1.845,2.491
				c1.227,1.633,2.448,3.212,3.655,4.733c3.621,4.564,7.12,8.612,10.304,12.076c1.021-1.075,2.11-2.253,3.254-3.529
				c1.144-1.276,2.344-2.651,3.586-4.118c2.485-2.934,5.142-6.24,7.871-9.874c1.364-1.817,2.747-3.716,4.135-5.691
				c0.694-0.988,1.389-1.995,2.084-3.02c1.39-2.051,2.78-4.176,4.157-6.369c0.688-1.097,1.373-2.211,2.053-3.341
				c2.72-4.521,5.363-9.306,7.828-14.312c1.849-3.754,3.598-7.633,5.205-11.617c4.69-11.629,8.155-24.165,9.38-37.149
				c0.164,0.004,0.325,0.02,0.49,0.02c0.002,0,0.004,0,0.006,0c0.002,0,0.004,0,0.006,0c0.165,0,0.326-0.016,0.49-0.02
				c0.525,5.57,1.45,11.06,2.723,16.427c3.051,12.862,8.01,25.042,13.743,36.051c0.637,1.223,1.283,2.432,1.938,3.625
				c1.963,3.581,3.998,7.025,6.063,10.315c1.376,2.193,2.766,4.318,4.157,6.369c2.085,3.076,4.173,5.986,6.219,8.712
				c5.458,7.268,10.628,13.223,14.712,17.522c10.085-10.97,23.315-27.794,33.635-48.308c2.716-5.398,5.23-11.052,7.432-16.922
				c0.881-2.348,1.712-4.731,2.486-7.145c1.383-4.313,2.571-8.734,3.55-13.238c0.239,0.01,0.475,0.028,0.716,0.029
				c-0.085,1.226-0.161,2.452-0.213,3.674c-0.001,0.027-0.002,0.054-0.003,0.081c-0.059,1.419-0.098,2.835-0.116,4.248
				c-0.043,3.449,0.031,6.877,0.221,10.273c0.03,0.539,0.07,1.075,0.105,1.613c0.043,0.652,0.087,1.304,0.139,1.954
				c0.045,0.57,0.094,1.138,0.145,1.706c0.056,0.62,0.114,1.239,0.177,1.856c0.057,0.565,0.114,1.129,0.177,1.691
				c0.072,0.643,0.15,1.283,0.228,1.923c0.064,0.523,0.125,1.048,0.194,1.57c0.142,1.074,0.293,2.143,0.454,3.207
				c0.079,0.52,0.165,1.036,0.248,1.553c0.1,0.627,0.2,1.254,0.307,1.877c0.095,0.553,0.194,1.104,0.293,1.654
				c0.105,0.584,0.212,1.167,0.323,1.747c0.104,0.549,0.21,1.098,0.319,1.644c0.118,0.593,0.241,1.182,0.364,1.771
				c0.108,0.517,0.215,1.036,0.327,1.55c0.169,0.776,0.345,1.546,0.522,2.314c0.157,0.679,0.317,1.355,0.479,2.028
				c0.157,0.649,0.313,1.297,0.475,1.94c0.128,0.506,0.259,1.008,0.39,1.51c0.147,0.565,0.295,1.129,0.446,1.689
				c0.136,0.505,0.273,1.007,0.412,1.508c0.157,0.565,0.316,1.126,0.476,1.686c0.135,0.472,0.27,0.946,0.407,1.414
				c0.195,0.663,0.393,1.318,0.592,1.972c0.156,0.514,0.313,1.026,0.471,1.534c0.247,0.79,0.496,1.576,0.748,2.353
				c0.138,0.423,0.278,0.84,0.417,1.26c0.188,0.567,0.376,1.132,0.567,1.691c0.147,0.432,0.295,0.86,0.443,1.287
				c0.19,0.547,0.381,1.089,0.573,1.628c0.145,0.407,0.29,0.815,0.436,1.218c0.22,0.607,0.442,1.206,0.664,1.803
				c0.118,0.316,0.235,0.638,0.353,0.951c0.331,0.876,0.663,1.741,0.997,2.594c0.119,0.305,0.24,0.603,0.359,0.906
				c0.231,0.582,0.462,1.161,0.693,1.731c0.139,0.344,0.279,0.682,0.419,1.022c0.217,0.527,0.434,1.049,0.651,1.565
				c0.138,0.329,0.276,0.657,0.414,0.981c0.237,0.556,0.473,1.103,0.71,1.646c0.113,0.259,0.226,0.522,0.338,0.778
				c0.344,0.782,0.687,1.55,1.028,2.303c0.075,0.166,0.15,0.325,0.224,0.489c0.274,0.6,0.547,1.192,0.818,1.773
				c0.121,0.258,0.24,0.51,0.36,0.764c0.229,0.484,0.457,0.963,0.683,1.433c0.122,0.254,0.245,0.507,0.366,0.757
				c0.233,0.479,0.464,0.949,0.694,1.412c0.104,0.21,0.209,0.424,0.313,0.631c0.329,0.657,0.655,1.302,0.976,1.926
				c2.255-1.783,4.674-3.76,7.218-5.924c1.272-1.082,2.575-2.21,3.905-3.384c0.665-0.587,1.336-1.185,2.014-1.795
				c1.355-1.219,2.734-2.484,4.132-3.793c2.796-2.618,5.67-5.413,8.582-8.378c0.728-0.741,1.458-1.493,2.191-2.255
				c2.197-2.287,4.409-4.669,6.622-7.142c4.426-4.946,8.851-10.257,13.147-15.908c1.432-1.884,2.85-3.806,4.248-5.764
				c1.398-1.958,2.778-3.954,4.133-5.985c1.287-1.929,2.551-3.893,3.79-5.887c0.223,0.055,0.453,0.094,0.68,0.141
				C393.463,112.73,393.186,113.298,392.921,113.867z M397.687,109.75c-7.186,0-13.011-4.456-13.011-9.954
				c0-5.497,5.825-9.954,13.011-9.954c7.186,0,13.011,4.456,13.011,9.954C410.698,105.294,404.873,109.75,397.687,109.75z"/>
			<path style="fill:#192A3B;" d="M397.687,92.687c-5.133,0-9.294,3.183-9.294,7.11c0,1.226,0.406,2.38,1.121,3.387
				c0.707-1.101,2.183-1.86,3.894-1.86c2.397,0,4.341,1.487,4.341,3.321c0,0.852-0.423,1.627-1.113,2.215
				c0.345,0.03,0.696,0.047,1.051,0.047c5.133,0,9.294-3.183,9.294-7.11C406.981,95.87,402.82,92.687,397.687,92.687z"/>
			<path style="fill:#192A3B;" d="M27.51,92.687c-5.133,0-9.294,3.183-9.294,7.11c0,1.226,0.406,2.38,1.121,3.387
				c0.707-1.101,2.183-1.86,3.894-1.86c2.397,0,4.341,1.487,4.341,3.321c0,0.852-0.423,1.627-1.113,2.215
				c0.345,0.03,0.696,0.047,1.051,0.047c5.133,0,9.294-3.183,9.294-7.11C36.804,95.87,32.643,92.687,27.51,92.687z"/>
		</g>
		<g>
			<path style="fill:#FFFFFF;" d="M213.96,51.244c0-1.493-1.582-2.702-3.532-2.702c-1.951,0-3.532,1.21-3.532,2.702
				c0,1.492,1.581,2.702,3.532,2.702C212.378,53.946,213.96,52.736,213.96,51.244z"/>
			<path style="fill:#FFFFFF;" d="M216.939,57.134c1.199,0,2.171-0.743,2.171-1.66c0-0.917-0.972-1.66-2.171-1.66
				c-1.199,0-2.171,0.743-2.171,1.66C214.769,56.39,215.74,57.134,216.939,57.134z"/>
			<path style="fill:#FFFFFF;" d="M311.907,64.663c0-1.493-1.581-2.702-3.532-2.702c-1.951,0-3.532,1.21-3.532,2.702
				c0,1.492,1.582,2.702,3.532,2.702C310.326,67.365,311.907,66.156,311.907,64.663z"/>
			<path style="fill:#FFFFFF;" d="M314.886,70.553c1.199,0,2.171-0.743,2.171-1.66c0-0.917-0.972-1.66-2.171-1.66
				c-1.199,0-2.171,0.743-2.171,1.66C312.716,69.81,313.688,70.553,314.886,70.553z"/>
			<path style="fill:#FFFFFF;" d="M116.013,64.663c0-1.493-1.581-2.702-3.532-2.702c-1.951,0-3.532,1.21-3.532,2.702
				c0,1.492,1.581,2.702,3.532,2.702C114.431,67.365,116.013,66.156,116.013,64.663z"/>
			<path style="fill:#FFFFFF;" d="M118.992,70.553c1.199,0,2.171-0.743,2.171-1.66c0-0.917-0.972-1.66-2.171-1.66
				s-2.171,0.743-2.171,1.66C116.822,69.81,117.793,70.553,118.992,70.553z"/>
			<path style="fill:#FFFFFF;" d="M395.516,94.392c-1.951,0-3.532,1.21-3.532,2.702s1.581,2.702,3.532,2.702
				c1.951,0,3.532-1.21,3.532-2.702S397.467,94.392,395.516,94.392z"/>
			<path style="fill:#FFFFFF;" d="M402.028,99.663c-1.199,0-2.171,0.743-2.171,1.66c0,0.917,0.972,1.66,2.171,1.66
				c1.199,0,2.171-0.743,2.171-1.66C404.198,100.407,403.227,99.663,402.028,99.663z"/>
			<ellipse style="fill:#FFFFFF;" cx="25.339" cy="97.094" rx="3.532" ry="2.702"/>
			<path style="fill:#FFFFFF;" d="M31.851,99.663c-1.199,0-2.171,0.743-2.171,1.66c0,0.917,0.972,1.66,2.171,1.66
				c1.199,0,2.171-0.743,2.171-1.66C34.021,100.407,33.05,99.663,31.851,99.663z"/>
		</g>
	</g>
</g>
</svg>
